HIERARCHY
ROOT Hips
{
	OFFSET 0.000000 0.000000 0.000000
	CHANNELS 6 Xposition Yposition Zposition Zrotation Yrotation Xrotation 
	JOINT LHipJoint
	{
		OFFSET 0.000000 0.000000 0.000000
		CHANNELS 3 Zrotation Yrotation Xrotation
		JOINT LeftUpLeg
		{
			OFFSET 1.363060 -1.794630 0.839290
			CHANNELS 3 Zrotation Yrotation Xrotation
			JOINT LeftLeg
			{
				OFFSET 2.448110 -6.726130 0.000000
				CHANNELS 3 Zrotation Yrotation Xrotation
				JOINT LeftFoot
				{
					OFFSET 2.562200 -7.039590 0.000000
					CHANNELS 3 Zrotation Yrotation Xrotation
					JOINT LeftToeBase
					{
						OFFSET 0.157640 -0.433110 2.322550
						CHANNELS 3 Zrotation Yrotation Xrotation
						End Site
						{
							OFFSET 0.000000 0.000000 0.000000
						}
					}
				}
			}
		}
	}
	JOINT RHipJoint
	{
		OFFSET 0.000000 0.000000 0.000000
		CHANNELS 3 Zrotation Yrotation Xrotation
		JOINT RightUpLeg
		{
			OFFSET -1.305520 -1.794630 0.839290
			CHANNELS 3 Zrotation Yrotation Xrotation
			JOINT RightLeg
			{
				OFFSET -2.542530 -6.985550 0.000000
				CHANNELS 3 Zrotation Yrotation Xrotation
				JOINT RightFoot
				{
					OFFSET -2.568260 -7.056230 0.000000
					CHANNELS 3 Zrotation Yrotation Xrotation
					JOINT RightToeBase
					{
						OFFSET -0.164730 -0.452590 2.363150
						CHANNELS 3 Zrotation Yrotation Xrotation
						End Site
						{
							OFFSET 0.000000 0.000000 0.000000
						}
					}
				}
			}
		}
	}
	JOINT LowerBack
	{
		OFFSET 0.000000 0.000000 0.000000
		CHANNELS 3 Zrotation Yrotation Xrotation
		JOINT Spine
		{
			OFFSET 0.028270 2.035590 -0.193380
			CHANNELS 3 Zrotation Yrotation Xrotation
			JOINT Spine1
			{
				OFFSET 0.056720 2.048850 -0.042750
				CHANNELS 3 Zrotation Yrotation Xrotation
				JOINT Neck
				{
					OFFSET 0.000000 0.000000 0.000000
					CHANNELS 3 Zrotation Yrotation Xrotation
					JOINT Neck1
					{
						OFFSET -0.054170 1.746240 0.172020
						CHANNELS 3 Zrotation Yrotation Xrotation
						JOINT Head
						{
							OFFSET 0.104070 1.761360 -0.123970
							CHANNELS 3 Zrotation Yrotation Xrotation
							End Site
							{
								OFFSET 0.000000 0.000000 0.000000
							}
						}
					}
				}
				JOINT LeftShoulder
				{
					OFFSET 0.000000 0.000000 0.000000
					CHANNELS 3 Zrotation Yrotation Xrotation
					JOINT LeftArm
					{
						OFFSET 3.362410 1.200890 -0.311210
						CHANNELS 3 Zrotation Yrotation Xrotation
						JOINT LeftForeArm
						{
							OFFSET 4.983000 -0.000000 -0.000000
							CHANNELS 3 Zrotation Yrotation Xrotation
							JOINT LeftHand
							{
								OFFSET 3.483560 -0.000000 -0.000000
								CHANNELS 3 Zrotation Yrotation Xrotation
								JOINT LeftFingerBase
								{
									OFFSET 0.000000 0.000000 0.000000
									CHANNELS 3 Zrotation Yrotation Xrotation
									JOINT LeftHandIndex1
									{
										OFFSET 0.715260 -0.000000 -0.000000
										CHANNELS 3 Zrotation Yrotation Xrotation
										End Site
										{
											OFFSET 0.000000 0.000000 0.000000
										}
									}
								}
								JOINT LThumb
								{
									OFFSET 0.000000 0.000000 0.000000
									CHANNELS 3 Zrotation Yrotation Xrotation
									End Site
									{
										OFFSET 0.000000 0.000000 0.000000
									}
								}
							}
						}
					}
				}
				JOINT RightShoulder
				{
					OFFSET 0.000000 0.000000 0.000000
					CHANNELS 3 Zrotation Yrotation Xrotation
					JOINT RightArm
					{
						OFFSET -3.136600 1.374050 -0.404650
						CHANNELS 3 Zrotation Yrotation Xrotation
						JOINT RightForeArm
						{
							OFFSET -5.241900 -0.000000 -0.000000
							CHANNELS 3 Zrotation Yrotation Xrotation
							JOINT RightHand
							{
								OFFSET -3.444170 -0.000000 -0.000000
								CHANNELS 3 Zrotation Yrotation Xrotation
								JOINT RightFingerBase
								{
									OFFSET 0.000000 0.000000 0.000000
									CHANNELS 3 Zrotation Yrotation Xrotation
									JOINT RightHandIndex1
									{
										OFFSET -0.622530 -0.000000 -0.000000
										CHANNELS 3 Zrotation Yrotation Xrotation
										End Site
										{
											OFFSET 0.000000 0.000000 0.000000
										}
									}
								}
								JOINT RThumb
								{
									OFFSET 0.000000 0.000000 0.000000
									CHANNELS 3 Zrotation Yrotation Xrotation
									End Site
									{
										OFFSET 0.000000 0.000000 0.000000
									}
								}
							}
						}
					}
				}
			}
		}
	}
}
MOTION
Frames: 12
Frame Time: 0.008333
5.407085 15.965382 0.866085 150.025612 -87.741121 -111.377611 -9.822106 -2.604615 1.695379 -7.913722 -10.089029 -74.650010 2.475243 4.408269 79.434976 3.496209 17.527201 -5.369323 1.419200 -0.000000 -27.337700 8.227679 -0.204984 2.021557 10.211945 8.787701 -52.225375 1.929439 -2.522578 47.612084 -2.872605 -4.072580 -28.747551 2.280800 0.000000 -54.917400 -0.057422 -2.018772 -1.503002 -1.124401 -2.181906 -3.540765 -7.131284 -2.416821 -0.114132 10.515658 -0.971784 -9.410979 -4.798756 -0.334697 -0.905998 0.000000 0.000000 0.000000 -3.825240 5.691049 4.798706 -70.163696 8.518749 14.026332 -3.144861 -22.796041 -0.011090 -5.415013 15.172222 -0.715467 -0.045387 0.007989 0.000000 0.000000 0.000000 0.000000 0.000000 0.000000 0.000000 22.615801 2.412487 3.160732 69.517984 13.279228 0.684147 2.317411 23.066092 -0.006205 -3.700378 2.518212 -0.088423 0.087681 -0.170725 0.000000 0.000000 0.000000 0.000000 0.000000 0.000000 0.000000 
5.278178 16.053882 0.856015 151.330994 -87.704858 -112.923819 -9.811763 -2.533413 1.784984 -7.996539 -9.928507 -74.608624 2.361295 4.392251 78.541296 3.500615 17.421445 -5.943014 1.262000 -0.000000 -25.689700 8.194473 -0.343868 2.051025 10.379122 8.502429 -50.402012 2.061507 -2.273329 45.242616 -2.796278 -3.938555 -27.903539 2.147601 -0.000000 -55.383700 -0.166662 -1.986835 -1.698836 -1.141184 -2.149860 -3.576478 -7.140930 -2.384117 -0.085101 10.557105 -1.077308 -9.435629 -4.791273 -0.334995 -0.900367 0.000000 0.000000 0.000000 -3.705405 5.882954 4.758864 -70.362040 9.357981 14.112192 -3.151485 -22.803416 -0.011216 -5.565521 14.882016 -0.721685 -0.044786 0.002780 0.000000 0.000000 0.000000 0.000000 0.000000 0.000000 0.000000 22.613449 2.371185 3.130230 69.483804 13.455022 1.047709 2.347031 23.308271 -0.006052 -3.671813 2.491729 -0.086911 0.088951 -0.170308 0.000000 0.000000 0.000000 0.000000 0.000000 0.000000 0.000000 
5.148686 16.139250 0.846764 152.119028 -87.709944 -113.955493 -9.790417 -2.461257 1.891180 -8.030576 -9.798249 -74.562846 2.223168 4.361599 77.427768 3.487290 17.185927 -6.585185 1.079001 -0.000000 -24.733300 8.168033 -0.481418 2.070791 10.556409 8.193955 -48.579326 2.182872 -2.026797 42.883666 -2.715433 -3.836891 -26.976190 2.012400 -0.000000 -55.922100 -0.255382 -1.951111 -1.897037 -1.153557 -2.115161 -3.615189 -7.150616 -2.349069 -0.065970 10.589523 -1.152278 -9.438401 -4.784489 -0.335534 -0.888438 0.000000 0.000000 0.000000 -3.600522 6.032424 4.721647 -70.538473 10.193698 14.149047 -3.154642 -22.856151 -0.011449 -5.656455 14.662767 -0.723004 -0.044331 -0.002274 0.000000 0.000000 0.000000 0.000000 0.000000 0.000000 0.000000 22.600400 2.360148 3.099974 69.454902 13.623408 1.373386 2.377235 23.605433 -0.005734 -3.564668 2.447603 -0.082997 0.089406 -0.169928 0.000000 0.000000 0.000000 0.000000 0.000000 0.000000 0.000000 
5.019182 16.221625 0.838409 152.516121 -87.748813 -114.610299 -9.759610 -2.387906 2.005845 -8.027425 -9.687131 -74.485587 2.060237 4.315127 76.074065 3.454729 16.821966 -7.232128 0.892000 0.000000 -24.391700 8.147613 -0.615636 2.072702 10.742890 7.853890 -46.738450 2.295550 -1.783191 40.528253 -2.628012 -3.756751 -25.967927 1.872400 -0.000000 -56.581600 -0.329364 -1.913646 -2.078464 -1.162628 -2.078894 -3.646251 -7.158331 -2.311788 -0.032975 10.623665 -1.275624 -9.454677 -4.775520 -0.335711 -0.880678 0.000000 0.000000 0.000000 -3.503542 6.210858 4.680198 -70.689874 10.934189 14.193259 -3.155855 -22.912720 -0.011781 -5.697883 14.520770 -0.721423 -0.044090 -0.007075 0.000000 0.000000 0.000000 0.000000 0.000000 0.000000 0.000000 22.592778 2.299658 3.066895 69.416208 13.901938 1.779493 2.411857 23.904071 -0.005320 -3.412123 2.374973 -0.077284 0.089664 -0.169250 0.000000 0.000000 0.000000 0.000000 0.000000 0.000000 0.000000 
4.889335 16.300635 0.830762 152.276978 -87.828145 -114.638781 -9.713608 -2.313349 2.133330 -7.997850 -9.609160 -74.373259 1.875482 4.247307 74.467709 3.404326 16.347437 -7.804796 0.728300 0.000001 -24.669100 8.140261 -0.747208 2.059978 10.929584 7.473235 -44.890282 2.401465 -1.545115 38.184589 -2.533339 -3.685908 -24.899731 1.727399 0.000000 -57.273000 -0.388458 -1.877539 -2.252077 -1.168793 -2.044535 -3.676260 -7.166201 -2.276402 -0.003531 10.653086 -1.389365 -9.460137 -4.767334 -0.336012 -0.870092 0.000000 0.000000 0.000000 -3.418060 6.367060 4.640796 -70.816541 11.651313 14.205771 -3.154982 -23.005221 -0.012188 -5.695155 14.455584 -0.718140 -0.044010 -0.011665 0.000000 0.000000 0.000000 0.000000 0.000000 0.000000 0.000000 22.584071 2.246810 3.032891 69.373830 14.204887 2.193948 2.445873 24.246080 -0.004847 -3.222565 2.281884 -0.070371 0.089536 -0.168527 0.000000 0.000000 0.000000 0.000000 0.000000 0.000000 0.000000 
4.759488 16.376162 0.823672 151.310165 -87.945783 -113.958259 -9.650267 -2.237055 2.268613 -7.958183 -9.558322 -74.208279 1.671304 4.156618 72.606140 3.336845 15.778752 -8.257552 0.602100 0.000001 -25.440000 8.149948 -0.874935 2.030054 11.111356 7.045109 -43.024841 2.502218 -1.313469 35.851238 -2.430207 -3.612561 -23.785416 1.576800 -0.000000 -58.005500 -0.434529 -1.843946 -2.409869 -1.172818 -2.012907 -3.705118 -7.174940 -2.243840 0.016021 10.676297 -1.477875 -9.448352 -4.760732 -0.336552 -0.855051 0.000000 0.000000 0.000000 -3.343188 6.484516 4.605767 -70.921709 12.365822 14.169659 -3.152686 -23.143430 -0.012642 -5.658941 14.453414 -0.713658 -0.044056 -0.016038 0.000000 0.000000 0.000000 0.000000 0.000000 0.000000 0.000000 22.572652 2.217774 2.998970 69.331761 14.508816 2.588092 2.476495 24.651267 -0.004349 -3.002655 2.161278 -0.062359 0.088962 -0.167821 0.000000 0.000000 0.000000 0.000000 0.000000 0.000000 0.000000 
4.629499 16.447819 0.817039 149.461049 -88.102079 -112.412795 -9.565956 -2.158010 2.408688 -7.922563 -9.531332 -73.986089 1.451190 4.042222 70.496535 3.254290 15.137552 -8.559359 0.521700 0.000000 -26.553500 8.182200 -0.997317 1.983335 11.282234 6.567668 -41.143660 2.598662 -1.089256 33.532375 -2.318225 -3.526219 -22.642586 1.422000 -0.000000 -58.749300 -0.468073 -1.814737 -2.549031 -1.174802 -1.985724 -3.728983 -7.183850 -2.215334 0.037605 10.698739 -1.579260 -9.435601 -4.754039 -0.337038 -0.840237 0.000000 0.000000 0.000000 -3.271962 6.597997 4.571008 -71.003178 13.037150 14.128460 -3.150275 -23.306818 -0.013114 -5.603633 14.486379 -0.708474 -0.044215 -0.020176 0.000000 0.000000 0.000000 0.000000 0.000000 0.000000 0.000000 22.565376 2.172864 2.962703 69.282248 14.866070 3.035664 2.505241 25.095061 -0.003881 -2.783638 2.024919 -0.054447 0.088392 -0.167067 0.000000 0.000000 0.000000 0.000000 0.000000 0.000000 0.000000 
4.499560 16.515318 0.810712 146.576660 -88.293758 -109.853544 -9.457330 -2.072913 2.550128 -7.905728 -9.519844 -73.703021 1.218328 3.905100 68.153135 3.158994 14.446193 -8.697145 0.487900 0.000000 -27.845300 8.242826 -1.111617 1.921085 11.437276 6.043315 -39.246889 2.690329 -0.872982 31.234503 -2.197393 -3.418874 -21.485632 1.264800 0.000001 -59.492501 -0.487591 -1.788989 -2.668081 -1.174821 -1.962119 -3.748898 -7.193691 -2.190107 0.056379 10.719266 -1.681615 -9.415903 -4.747543 -0.337552 -0.823936 0.000000 0.000000 0.000000 -3.202940 6.694108 4.537331 -71.062395 13.685382 14.080935 -3.148508 -23.503816 -0.013579 -5.544482 14.528326 -0.703090 -0.044430 -0.024130 0.000000 0.000000 0.000000 0.000000 0.000000 0.000000 0.000000 22.559453 2.124561 2.924740 69.227482 15.258440 3.526497 2.530657 25.588340 -0.003454 -2.573205 1.881089 -0.047034 0.087838 -0.166384 0.000000 0.000000 0.000000 0.000000 0.000000 0.000000 0.000000 
4.369298 16.578154 0.804666 142.641532 -88.512797 -106.257334 -9.324644 -1.975280 2.694242 -7.915094 -9.512389 -73.372711 0.975621 3.748830 65.597002 3.053971 13.727042 -8.670503 0.497401 -0.000000 -29.173000 8.333716 -1.215356 1.849746 11.574985 5.489069 -37.346533 2.775086 -0.663630 28.970121 -2.069657 -3.289704 -20.326961 1.108800 -0.000000 -60.199100 -0.490426 -1.762003 -2.776927 -1.172849 -1.937968 -3.770313 -7.206001 -2.164479 0.060614 10.733022 -1.751778 -9.373058 -4.742137 -0.338347 -0.801342 0.000000 0.000000 0.000000 -3.140792 6.738620 4.506626 -71.101432 14.361879 14.006425 -3.147784 -23.755803 -0.014016 -5.497708 14.554532 -0.698604 -0.044618 -0.028026 0.000000 0.000000 0.000000 0.000000 0.000000 0.000000 0.000000 22.545998 2.107626 2.887105 69.171903 15.634589 4.021268 2.550713 26.153007 -0.003052 -2.369102 1.744048 -0.040422 0.087152 -0.166015 0.000000 0.000000 0.000000 0.000000 0.000000 0.000000 0.000000 
4.239294 16.636436 0.798644 137.582201 -88.744080 -101.565580 -9.166266 -1.857950 2.828125 -7.973517 -9.487248 -72.970203 0.721957 3.577555 62.844102 2.941547 13.000403 -8.500692 0.540300 -0.000000 -30.412500 8.460518 -1.300911 1.759594 11.689159 4.895914 -35.421134 2.851341 -0.461281 26.742470 -1.932977 -3.127184 -19.166386 0.954400 -0.000000 -60.937400 -0.484317 -1.732968 -2.850522 -1.170674 -1.911028 -3.780921 -7.218378 -2.135056 0.077101 10.754172 -1.869923 -9.343981 -4.734935 -0.338774 -0.783411 0.000000 0.000000 0.000000 -3.071591 6.817317 4.470886 -71.112926 14.955025 13.995476 -3.149872 -24.011390 -0.014418 -5.485130 14.541080 -0.696518 -0.044792 -0.031778 0.000000 0.000000 0.000000 0.000000 0.000000 0.000000 0.000000 22.546318 2.042748 2.846472 69.098527 16.118839 4.647432 2.570496 26.738480 -0.002702 -2.189011 1.610116 -0.034709 0.086852 -0.165639 0.000000 0.000000 0.000000 0.000000 0.000000 0.000000 0.000000 
4.108821 16.689523 0.792925 131.833759 -88.970113 -96.194480 -8.995833 -1.714382 2.962290 -8.075205 -9.430864 -72.533530 0.458109 3.398332 59.920120 2.825227 12.284845 -8.201902 0.610600 0.000000 -31.526500 8.608819 -1.370359 1.664192 11.782623 4.303031 -33.501486 2.915551 -0.263558 24.574216 -1.792496 -2.943427 -18.010497 0.806100 -0.000001 -61.636700 -0.471889 -1.692398 -2.917859 -1.169304 -1.872790 -3.795106 -7.233650 -2.094607 0.076498 10.769014 -1.949638 -9.287543 -4.728650 -0.339508 -0.757851 0.000000 0.000000 0.000000 -3.013449 6.842298 4.435793 -71.099959 15.593106 13.980683 -3.154106 -24.327764 -0.014791 -5.517442 14.479091 -0.697832 -0.044845 -0.035666 0.000000 0.000000 0.000000 0.000000 0.000000 0.000000 0.000000 22.537909 2.019395 2.808299 69.016979 16.582833 5.292471 2.586074 27.390884 -0.002336 -2.011348 1.504495 -0.029994 0.086423 -0.165752 0.000000 0.000000 0.000000 0.000000 0.000000 0.000000 0.000000 
3.978041 16.737383 0.787578 125.800467 -89.175078 -90.551520 -8.825636 -1.545742 3.092854 -8.228542 -9.326157 -72.057874 0.181303 3.215062 56.842671 2.707291 11.594625 -7.804092 0.698700 0.000000 -32.501699 8.765845 -1.425551 1.561100 11.853887 3.719618 -31.584757 2.966792 -0.071096 22.474059 -1.649503 -2.741228 -16.855153 0.665100 0.000000 -62.325500 -0.465934 -1.639198 -2.972210 -1.171088 -1.821050 -3.807354 -7.249819 -2.040357 0.074759 10.785362 -2.037815 -9.224623 -4.721650 -0.340198 -0.730681 0.000000 0.000000 0.000000 -2.963205 6.861696 4.395847 -71.055413 16.218723 14.020242 -3.161113 -24.678138 -0.015153 -5.607449 14.362453 -0.703746 -0.044786 -0.039700 0.000000 0.000000 0.000000 0.000000 0.000000 0.000000 0.000000 22.533199 1.990734 2.771411 68.911016 17.101413 6.042230 2.601731 28.072280 -0.001948 -1.844486 1.433954 -0.026378 0.086191 -0.166188 0.000000 0.000000 0.000000 0.000000 0.000000 0.000000 0.000000 
